<?xml version="1.0" encoding="utf-8"?>
<!-- Generator: Adobe Illustrator 19.1.0, SVG Export Plug-In . SVG Version: 6.00 Build 0)  -->
<svg version="1.1" id="Layer_1" xmlns="http://www.w3.org/2000/svg" xmlns:xlink="http://www.w3.org/1999/xlink" x="0px" y="0px"
	 viewBox="-49 68.5 100 65" style="enable-background:new -49 68.5 100 65;" xml:space="preserve">
<style type="text/css">
	.st0{fill:#D8D8D8;}
	.st1{fill:none;stroke:#D8D8D8;stroke-width:2;stroke-miterlimit:10;}
</style>
<g>
	<g>
		<path class="st0" d="M-24,106c-3.5,0-7.1,0-10.7,0c-1.3,0-2.2-0.9-2.2-2.2c0-6,0-12,0-18c0-0.3,0-0.7,0-1c0-1.1,0.9-2,2-2
			c7.3,0,14.6,0,21.8,0c1.1,0,1.9,0.8,2,1.8c0,0.1,0,0.3,0,0.4c0,6.2,0,12.5,0,18.7c0,1.2-0.5,1.9-1.5,2.2c-0.2,0.1-0.4,0.1-0.6,0.1
			C-16.8,106-20.4,106-24,106z M-17.8,94.6c0.6-0.7,0.9-0.7,1.5,0c1.3,1.2,2.5,2.5,3.8,3.8c0-0.2,0-0.3,0-0.4c0-4.4,0-8.7,0-13.1
			c0-0.6-0.2-0.8-0.9-0.8c-7.1,0-14.3,0-21.4,0c-0.7,0-0.9,0.2-0.9,0.9c0,4.2,0,8.5,0,12.7c0,0.1,0,0.2,0,0.4
			c0.2-0.2,0.3-0.2,0.4-0.3c2-1.8,3.9-3.6,5.8-5.3c0.6-0.5,0.8-0.5,1.4,0c2,2,3.9,3.9,5.9,5.9c0.1,0.1,0.2,0.2,0.4,0.3 M-28.6,93.7
			c-0.1,0-0.1,0.1-0.1,0.1c-2.2,2-4.5,4-6.7,6.1c-0.1,0.1-0.2,0.3-0.2,0.5c0,1.2,0,2.4,0,3.5c0,0.6,0.2,0.8,0.8,0.8
			c7.2,0,14.4,0,21.5,0c0.6,0,0.8-0.2,0.8-0.8c0-1.1,0-2.1,0-3.2c0-0.2-0.1-0.5-0.2-0.6c-1-1.1-2.1-2.1-3.1-3.1
			c-0.4-0.4-0.8-0.9-1.3-1.3c-0.1,0.2-0.1,0.2-0.2,0.3c-1.2,1.3-2.5,2.7-3.7,4c-0.6,0.6-0.9,0.6-1.5,0
			C-24.5,97.9-26.5,95.8-28.6,93.7z"/>
		<path class="st0" d="M-25.3,88.8c0-1.8,1.5-3.3,3.3-3.3s3.3,1.4,3.3,3.3c0,1.7-1.5,3.3-3.3,3.3S-25.3,90.6-25.3,88.8z M-20,88.9
			c0-1.1-0.9-2-2-2s-2,0.9-2,2c0,1.1,0.9,2,2,2S-20,89.9-20,88.9z"/>
	</g>
	<g>
		<path class="st0" d="M-24,109.8c3.2,0,6.3,0,9.5,0c0.8,0,1.1,0.3,1.1,1.1c0,0.2,0,0.4,0,0.6c0,0.5-0.4,0.9-0.9,0.9
			c-0.1,0-0.1,0-0.2,0c-6.3,0-12.6,0-18.9,0c-0.3,0-0.6,0-0.8-0.3c-0.1-0.2-0.2-0.4-0.2-0.6s0-0.5,0-0.8c0-0.6,0.4-0.9,0.9-0.9
			C-30.4,109.8-27.2,109.8-24,109.8z"/>
		<path class="st0" d="M-29.3,115c1.4,0,2.8,0,4.3,0c0.7,0,1,0.4,1,1c0,0.2,0,0.5,0,0.7c0,0.6-0.4,0.9-0.9,0.9c-0.2,0-0.4,0-0.5,0
			c-2.7,0-5.3,0-8,0c-0.8,0-1.1-0.3-1.1-1.1c0-0.2,0-0.4,0-0.6c0-0.6,0.4-0.9,0.9-0.9C-32.2,115-30.7,115-29.3,115z"/>
	</g>
</g>
<path class="st1" d="M-10.2,123.9h-27.6c-3.3,0-6-2.7-6-6V83.7c0-3.3,2.7-6,6-6h27.6c3.3,0,6,2.7,6,6v34.2
	C-4.2,121.2-6.9,123.9-10.2,123.9z"/>
<g>
	<g>
		<path class="st0" d="M26,106c-3.5,0-7.1,0-10.7,0c-1.3,0-2.2-0.9-2.2-2.2c0-6,0-12,0-18c0-0.3,0-0.7,0-1c0-1.1,0.9-2,2-2
			c7.3,0,14.6,0,21.8,0c1.1,0,1.9,0.8,2,1.8c0,0.1,0,0.3,0,0.4c0,6.2,0,12.5,0,18.7c0,1.2-0.5,1.9-1.5,2.2c-0.2,0.1-0.4,0.1-0.6,0.1
			C33.2,106,29.6,106,26,106z M32.2,94.6c0.6-0.7,0.9-0.7,1.5,0c1.3,1.2,2.5,2.5,3.8,3.8c0-0.2,0-0.3,0-0.4c0-4.4,0-8.7,0-13.1
			c0-0.6-0.2-0.8-0.9-0.8c-7.1,0-14.3,0-21.4,0c-0.7,0-0.9,0.2-0.9,0.9c0,4.2,0,8.5,0,12.7c0,0.1,0,0.2,0,0.4
			c0.2-0.2,0.3-0.2,0.4-0.3c2-1.8,3.9-3.6,5.8-5.3c0.6-0.5,0.8-0.5,1.4,0c2,2,3.9,3.9,5.9,5.9c0.1,0.1,0.2,0.2,0.4,0.3 M21.4,93.7
			C21.3,93.7,21.3,93.8,21.4,93.7c-2.3,2.1-4.6,4.1-6.8,6.2c-0.1,0.1-0.2,0.3-0.2,0.5c0,1.2,0,2.4,0,3.5c0,0.6,0.2,0.8,0.8,0.8
			c7.2,0,14.4,0,21.5,0c0.6,0,0.8-0.2,0.8-0.8c0-1.1,0-2.1,0-3.2c0-0.2-0.1-0.5-0.2-0.6c-1-1.1-2.1-2.1-3.1-3.1
			c-0.4-0.4-0.8-0.9-1.3-1.3c-0.1,0.2-0.1,0.2-0.2,0.3c-1.2,1.3-2.5,2.7-3.7,4c-0.6,0.6-0.9,0.6-1.5,0
			C25.5,97.9,23.5,95.8,21.4,93.7z"/>
		<path class="st0" d="M24.7,88.8c0-1.8,1.5-3.3,3.3-3.3s3.3,1.4,3.3,3.3c0,1.7-1.5,3.3-3.3,3.3S24.7,90.6,24.7,88.8z M30,88.9
			c0-1.1-0.9-2-2-2s-2,0.9-2,2c0,1.1,0.9,2,2,2S30,89.9,30,88.9z"/>
	</g>
	<g>
		<path class="st0" d="M26,109.8c3.2,0,6.3,0,9.5,0c0.8,0,1.1,0.3,1.1,1.1c0,0.2,0,0.4,0,0.6c0,0.5-0.4,0.9-0.9,0.9
			c-0.1,0-0.1,0-0.2,0c-6.3,0-12.6,0-18.9,0c-0.3,0-0.6,0-0.8-0.3c-0.1-0.2-0.2-0.4-0.2-0.6s0-0.5,0-0.8c0-0.6,0.4-0.9,0.9-0.9
			C19.6,109.8,22.8,109.8,26,109.8z"/>
		<path class="st0" d="M20.7,115c1.4,0,2.8,0,4.3,0c0.7,0,1,0.4,1,1c0,0.2,0,0.5,0,0.7c0,0.6-0.4,0.9-0.9,0.9c-0.2,0-0.4,0-0.5,0
			c-2.7,0-5.3,0-8,0c-0.8,0-1.1-0.3-1.1-1.1c0-0.2,0-0.4,0-0.6c0-0.6,0.4-0.9,0.9-0.9C17.8,115,19.3,115,20.7,115z"/>
	</g>
</g>
<path class="st1" d="M39.8,123.9H12.2c-3.3,0-6-2.7-6-6V83.7c0-3.3,2.7-6,6-6h27.6c3.3,0,6,2.7,6,6v34.2
	C45.8,121.2,43.1,123.9,39.8,123.9z"/>
</svg>
