<?xml version="1.0" encoding="utf-8"?>
<!-- Generator: Adobe Illustrator 19.1.0, SVG Export Plug-In . SVG Version: 6.00 Build 0)  -->
<svg version="1.1" id="Layer_1" xmlns="http://www.w3.org/2000/svg" xmlns:xlink="http://www.w3.org/1999/xlink" x="0px" y="0px"
	 viewBox="-9 61 100 65" style="enable-background:new -9 61 100 65;" xml:space="preserve">
<style type="text/css">
	.st0{fill:#D8D8D8;}
</style>
<g>
	<g>
		<path class="st0" d="M19.2,102c-4.9,0-9.8,0-14.7,0c-1.8,0-3.1-1.3-3.1-3.1c0-8.3,0-16.6,0-24.9c0-0.5,0-0.9,0-1.4
			c0-1.5,1.2-2.7,2.7-2.7c10.1,0,20.1,0,30.2,0c1.5,0,2.6,1.1,2.7,2.5c0,0.2,0,0.4,0,0.6c0,8.6,0,17.3,0,25.9c0,1.6-0.8,2.7-2.1,3
			c-0.3,0.1-0.5,0.1-0.8,0.1C29.1,102,24.1,102,19.2,102z M27.8,86.3c0.9-0.9,1.2-0.9,2.1,0c1.7,1.7,3.5,3.5,5.3,5.3
			c0-0.3,0-0.4,0-0.5c0-6,0-12.1,0-18.1c0-0.8-0.3-1.1-1.2-1.1c-9.9,0-19.8,0-29.7,0c-1,0-1.2,0.3-1.2,1.2c0,5.9,0,11.7,0,17.6
			c0,0.2,0,0.3,0,0.6c0.2-0.2,0.4-0.3,0.5-0.5c2.7-2.4,5.4-4.9,8.1-7.4c0.8-0.8,1.1-0.7,1.9,0c2.7,2.7,5.4,5.4,8.2,8.2
			c0.2,0.2,0.3,0.3,0.5,0.5 M12.8,85c-0.1,0-0.1,0.1-0.2,0.1c-3.1,2.8-6.2,5.6-9.2,8.4c-0.2,0.1-0.3,0.4-0.3,0.7c0,1.6,0,3.3,0,4.9
			c0,0.8,0.3,1.1,1.1,1.1c9.9,0,19.9,0,29.8,0c0.8,0,1.1-0.3,1.1-1.1c0-1.5,0-2.9,0-4.4c0-0.3-0.1-0.6-0.3-0.8
			c-1.4-1.5-2.9-2.9-4.3-4.4c-0.5-0.5-1.1-1.2-1.8-1.9c-0.1,0.2-0.2,0.3-0.3,0.4c-1.7,1.8-3.4,3.7-5.1,5.5c-0.8,0.9-1.2,0.9-2,0
			C18.5,90.8,15.7,87.9,12.8,85z"/>
		<path class="st0" d="M17.4,78.2c0-2.4,2-4.5,4.5-4.5c2.5,0,4.6,2,4.6,4.6c0,2.4-2.1,4.6-4.6,4.6S17.4,80.7,17.4,78.2z M24.7,78.3
			c0-1.6-1.2-2.8-2.7-2.8c-1.5,0-2.7,1.2-2.7,2.7c0,1.6,1.2,2.8,2.7,2.8S24.7,79.7,24.7,78.3z"/>
	</g>
	<g>
		<path class="st0" d="M19.2,107.2c4.4,0,8.7,0,13.1,0c1.1,0,1.5,0.4,1.5,1.5c0,0.3,0,0.6,0,0.8c0,0.7-0.5,1.2-1.2,1.3
			c-0.1,0-0.2,0-0.3,0c-8.7,0-17.4,0-26.1,0c-0.4,0-0.9,0-1.2-0.4c-0.1-0.2-0.3-0.5-0.3-0.8c0-0.3,0-0.7,0-1.1
			c0-0.8,0.5-1.3,1.3-1.3C10.4,107.2,14.8,107.2,19.2,107.2z"/>
		<path class="st0" d="M11.9,114.5c1.9,0,3.9,0,5.9,0c1,0,1.4,0.5,1.4,1.4c0,0.3,0,0.6,0,0.9c0,0.8-0.5,1.3-1.3,1.3
			c-0.2,0-0.5,0-0.7,0c-3.7,0-7.3,0-11,0c-1.1,0-1.6-0.4-1.6-1.6c0-0.3,0-0.5,0-0.8c0-0.8,0.5-1.3,1.3-1.3
			C7.9,114.5,9.9,114.5,11.9,114.5z"/>
	</g>
</g>
<g>
	<g>
		<path class="st0" d="M63.4,102c-4.9,0-9.8,0-14.7,0c-1.8,0-3.1-1.3-3.1-3.1c0-8.3,0-16.6,0-24.9c0-0.5,0-0.9,0-1.4
			c0-1.5,1.2-2.7,2.7-2.7c10.1,0,20.1,0,30.2,0c1.5,0,2.6,1.1,2.7,2.5c0,0.2,0,0.4,0,0.6c0,8.6,0,17.3,0,25.9c0,1.6-0.8,2.7-2.1,3
			c-0.3,0.1-0.5,0.1-0.8,0.1C73.4,102,68.4,102,63.4,102z M72,86.3c0.9-0.9,1.2-0.9,2.1,0c1.7,1.7,3.5,3.5,5.3,5.3
			c0-0.3,0-0.4,0-0.5c0-6,0-12.1,0-18.1c0-0.8-0.3-1.1-1.2-1.1c-9.9,0-19.8,0-29.7,0c-1,0-1.2,0.3-1.2,1.2c0,5.9,0,11.7,0,17.6
			c0,0.2,0,0.3,0,0.6c0.2-0.2,0.4-0.3,0.5-0.5c2.7-2.4,5.4-4.9,8.1-7.4c0.8-0.8,1.1-0.7,1.9,0c2.7,2.7,5.4,5.4,8.2,8.2
			c0.2,0.2,0.3,0.3,0.5,0.5 M57,85c-0.1,0-0.1,0.1-0.2,0.1c-3.1,2.8-6.2,5.6-9.2,8.4c-0.2,0.1-0.3,0.4-0.3,0.7c0,1.6,0,3.3,0,4.9
			c0,0.8,0.3,1.1,1.1,1.1c9.9,0,19.9,0,29.8,0c0.8,0,1.1-0.3,1.1-1.1c0-1.5,0-2.9,0-4.4c0-0.3-0.1-0.6-0.3-0.8
			c-1.4-1.5-2.9-2.9-4.3-4.4c-0.5-0.5-1.1-1.2-1.8-1.9c-0.1,0.2-0.2,0.3-0.3,0.4c-1.7,1.8-3.4,3.7-5.1,5.5c-0.8,0.9-1.2,0.9-2,0
			C62.8,90.8,60,87.9,57,85z"/>
		<path class="st0" d="M61.7,78.2c0-2.4,2-4.5,4.5-4.5c2.5,0,4.6,2,4.6,4.6c0,2.4-2.1,4.6-4.6,4.6C63.7,82.8,61.7,80.7,61.7,78.2z
			 M69,78.3c0-1.6-1.2-2.8-2.7-2.8c-1.5,0-2.7,1.2-2.7,2.7c0,1.6,1.2,2.8,2.7,2.8S69,79.7,69,78.3z"/>
	</g>
	<g>
		<path class="st0" d="M63.4,107.2c4.4,0,8.7,0,13.1,0c1.1,0,1.5,0.4,1.5,1.5c0,0.3,0,0.6,0,0.8c0,0.7-0.5,1.2-1.2,1.3
			c-0.1,0-0.2,0-0.3,0c-8.7,0-17.4,0-26.1,0c-0.4,0-0.9,0-1.2-0.4c-0.1-0.2-0.3-0.5-0.3-0.8c0-0.3,0-0.7,0-1.1
			c0-0.8,0.5-1.3,1.3-1.3C54.6,107.2,59.1,107.2,63.4,107.2z"/>
		<path class="st0" d="M56.2,114.5c1.9,0,3.9,0,5.9,0c1,0,1.4,0.5,1.4,1.4c0,0.3,0,0.6,0,0.9c0,0.8-0.5,1.3-1.3,1.3
			c-0.2,0-0.5,0-0.7,0c-3.7,0-7.3,0-11,0c-1.1,0-1.6-0.4-1.6-1.6c0-0.3,0-0.5,0-0.8c0-0.8,0.5-1.3,1.3-1.3
			C52.2,114.5,54.2,114.5,56.2,114.5z"/>
	</g>
</g>
</svg>
