<?xml version="1.0" encoding="utf-8"?>
<!-- Generator: Adobe Illustrator 19.1.0, SVG Export Plug-In . SVG Version: 6.00 Build 0)  -->
<svg version="1.1" id="Layer_1" xmlns="http://www.w3.org/2000/svg" xmlns:xlink="http://www.w3.org/1999/xlink" x="0px" y="0px"
	 viewBox="31 68.5 100 65" style="enable-background:new 31 68.5 100 65;" xml:space="preserve">
<style type="text/css">
	.st0{fill:#D8D8D8;}
</style>
<g>
	<path class="st0" d="M102.9,118.9c-5.8,0-11.6-0.1-17.3,0.1c-2.2,0.1-3.6-1.5-3.6-3.6c0.1-9.8,0-19.6,0-29.3c0-0.5,0-1.1,0-1.6
		c0.1-1.8,1.5-3.2,3.3-3.2c11.8,0,23.7,0,35.5,0c1.7,0,3.1,1.2,3.3,3c0,0.2,0.1,0.5,0.1,0.7c0,10.1,0,20.4,0,30.5
		c0,1.9-0.9,3.1-2.5,3.5c-0.3,0.1-0.6,0.1-0.9,0.1C114.6,118.9,108.7,118.9,102.9,118.9z M121.8,106.6c0-0.3,0.1-0.5,0.1-0.6
		c0-7.1,0-14.2,0-21.3c0-1-0.3-1.3-1.5-1.3c-11.6,0-23.3,0-34.9,0c-1.2,0-1.4,0.3-1.4,1.5c0,6.9,0,13.8,0,20.7
		c0,0.2,0.1,0.4,0.1,0.7c0.2-0.2,0.5-0.4,0.6-0.5c3.2-2.9,6.3-5.8,9.5-8.7c0.9-0.9,1.3-0.9,2.2,0.1c3.2,3.2,6.3,6.4,9.6,9.6
		c0.2,0.2,0.4,0.3,0.6,0.5c2.2-2.3,4.2-4.5,6.3-6.7c1-1.1,1.4-1.1,2.5,0C117.6,102.4,119.6,104.4,121.8,106.6z M95.4,98.9
		C95.3,99,95.3,99,95.3,99c-3.6,3.3-7.3,6.6-10.8,9.9c-0.2,0.2-0.3,0.5-0.3,0.8c0,1.9,0,3.8,0,5.8c0,1,0.3,1.3,1.3,1.3
		c11.7,0,23.4,0,35,0c1,0,1.3-0.3,1.3-1.3c0-1.7,0-3.4,0-5.2c0-0.3-0.2-0.8-0.4-0.9c-1.7-1.7-3.4-3.4-5.1-5.1
		c-0.6-0.6-1.3-1.4-2.1-2.2c-0.2,0.2-0.2,0.4-0.3,0.5c-2,2.2-4,4.3-6,6.5c-0.9,1-1.4,1-2.4,0.1C102.2,105.7,98.9,102.3,95.4,98.9z"
		/>
	<path class="st0" d="M100.8,90.8c0-2.9,2.4-5.3,5.3-5.3c3,0,5.3,2.3,5.4,5.4c0.1,2.8-2.4,5.3-5.4,5.3
		C103.2,96.3,100.8,93.8,100.8,90.8z M109.4,91c0-1.9-1.5-3.3-3.3-3.3c-1.7,0-3.3,1.5-3.3,3.2c0,1.9,1.5,3.3,3.3,3.3
		C108,94.1,109.4,92.7,109.4,91z"/>
</g>
<g>
	<path class="st0" d="M55.6,85.2c5.2,0,10.4,0,15.6,0c1.3,0,1.8,0.5,1.8,1.8c0,0.3,0,0.7,0,1c0,0.9-0.6,1.5-1.5,1.6
		c-0.1,0-0.2,0-0.3,0c-10.4,0-20.8,0-31.2,0c-0.6,0-1.1-0.1-1.5-0.6c-0.1-0.2-0.3-0.5-0.3-0.7c-0.1-0.6-0.1-1.2,0-1.8
		c0-0.7,0.6-1.3,1.5-1.3c2,0,4,0,6,0C49,85.2,52.3,85.2,55.6,85.2z"/>
	<path class="st0" d="M55.6,94c5.2,0,10.4,0,15.6,0c1.3,0,1.8,0.5,1.8,1.8c0,0.3,0,0.7,0,1c0,0.9-0.6,1.5-1.5,1.6
		c-0.1,0-0.2,0-0.3,0c-10.4,0-20.8,0-31.2,0c-0.6,0-1.1-0.1-1.5-0.6c-0.1-0.2-0.3-0.5-0.3-0.7c-0.1-0.6-0.1-1.2,0-1.8
		c0.1-0.8,0.7-1.3,1.5-1.3c2,0,4,0,6,0C49,94,52.3,94,55.6,94z"/>
	<path class="st0" d="M55.6,102.7c5.2,0,10.4,0,15.6,0c1.3,0,1.8,0.5,1.8,1.8c0,0.3,0,0.7,0,1c0,0.9-0.6,1.5-1.5,1.6
		c-0.1,0-0.2,0-0.3,0c-10.4,0-20.8,0-31.2,0c-0.5,0-1-0.1-1.4-0.5c-0.2-0.3-0.3-0.6-0.3-0.9c-0.1-0.4,0-0.9,0-1.3
		c0-1,0.6-1.6,1.6-1.6C45,102.7,50.3,102.7,55.6,102.7z"/>
	<path class="st0" d="M46.9,111.4c2.3,0,4.7,0,7,0c1.2,0,1.7,0.6,1.7,1.7c0,0.3,0,0.8,0,1.1c0,0.9-0.6,1.5-1.5,1.6
		c-0.3,0-0.6,0-0.9,0c-4.4,0-8.8,0-13.2,0c-1.3,0-1.9-0.5-1.9-1.9c0-0.3,0-0.6,0-1c0-0.9,0.6-1.6,1.6-1.6
		C42.1,111.4,44.4,111.4,46.9,111.4z"/>
</g>
</svg>
