<?xml version="1.0" encoding="utf-8"?>
<!-- Generator: Adobe Illustrator 19.1.0, SVG Export Plug-In . SVG Version: 6.00 Build 0)  -->
<svg version="1.1" id="Layer_1" xmlns="http://www.w3.org/2000/svg" xmlns:xlink="http://www.w3.org/1999/xlink" x="0px" y="0px"
	 viewBox="-49 51 100 100" style="enable-background:new -49 51 100 100;" xml:space="preserve">
<style type="text/css">
	.st0{fill:#D8D8D8;}
</style>
<g>
	<path class="st0" d="M-6.2,112.7c0-0.7,0-1,0-1.3c0-10.9,0-21.7,0-32.6c0-3.8,3-6.5,6.8-6.2C3.6,73,6,75.6,6,78.8C6,83,6,87,6,91.1
		c0,0.3,0,0.8,0,1.2c2.8,0,5.4,0.7,7.7,2.1c0.2,0.1,0.4,0.1,0.7,0c2.9-0.1,5.7,0.5,8.3,1.9c1,0.4,2.1,0.4,3.2,0.8
		c1.4,0.4,2.9,0.9,4.4,1.5c2.2,1.1,3.4,2.9,3.4,5.4c0.1,4.9,0.1,9.7,0,14.6c-0.2,12-10.8,21.9-22.7,21.1c-5.3-0.3-9.9-2.4-13.6-6.1
		c-6.6-6.6-13.3-13.3-19.8-20c-1.7-1.7-2.3-3.9-1.6-6.3c0.7-2.3,2.4-3.7,4.7-4.1c2.2-0.4,4.1,0.3,5.7,1.9c2.3,2.3,4.6,4.6,6.8,6.8
		C-6.9,112.1-6.5,112.3-6.2,112.7z M3,103c0-0.4,0-0.9,0-1.3c0-7.6,0-15.1,0-22.8c0-1.3-0.4-2.4-1.7-3c-2.2-1.1-4.5,0.4-4.5,3
		c0,11.1,0,22.1,0,33.2c0,1.5-0.3,2.7-1.7,3.4c-1.5,0.7-2.7,0.2-3.8-1c-2.4-2.4-4.8-4.8-7.3-7.2c-0.5-0.5-1.4-1-2.2-1.2
		c-1.2-0.2-2.4,0.5-2.9,1.6c-0.7,1.3-0.3,2.5,0.8,3.7c6.6,6.6,13.2,13.4,19.8,20c4,3.9,9,5.7,14.6,5.1c8.4-0.9,15.7-8.2,16.3-16.6
		c0.4-5.4,0.2-10.9,0.2-16.3c0-1.1-0.5-1.9-1.4-2.4c-1.4-0.9-2.9-1.3-4.7-1.5c0,2.2,0,4.1,0,6.2c-1.1,0-2,0-3,0c0-2.2,0-4.2,0-6.3
		c0-0.3-0.1-0.8-0.2-0.9c-1.9-1-3.7-1.5-5.9-1.4c0,2.9,0,5.8,0,8.7c-1.1,0-2,0-3,0c0-2.8,0-5.7,0-8.4c0-0.3,0-0.8-0.2-0.9
		c-1.9-1-3.7-1.5-5.9-1.4c0,2.6,0,5.1,0,7.7C5.1,103,4.1,103,3,103z"/>
	<path class="st0" d="M12.3,87.7c0-1,0-1.9,0-2.9c0.3,0,0.8,0,1.1,0c4.2,0,8.5,0,12.6,0c4.5,0,7.8-3.7,7.6-8.1
		c-0.2-3.9-3.3-7-7.3-7.2c-0.2,0-0.5,0-0.8,0c-17.1,0-34.1,0-51.2,0c-3.6,0-6.3,1.7-7.6,4.8c-2,5,1.5,10.3,7,10.5
		c4.2,0.1,8.6,0,12.9,0c0.3,0,0.7,0,1,0c0,1,0,2,0,3c-0.2,0-0.4,0-0.5,0c-4.4,0-8.8,0-13.2,0c-5.6,0-9.9-4-10.7-9.6
		c-0.7-5.1,2.8-10.1,8.1-11.4c1-0.2,2-0.3,2.9-0.3c17.2,0,34.3,0,51.5,0c4.4,0,7.7,2,9.8,5.9c2.1,3.9,1.6,7.7-0.9,11.2
		c-2,2.6-4.6,4.2-7.8,4.2c-4.7,0.1-9.4,0-14,0C12.5,87.8,12.4,87.7,12.3,87.7z"/>
</g>
</svg>
