<?xml version="1.0" encoding="utf-8"?>
<!-- Generator: Adobe Illustrator 19.1.0, SVG Export Plug-In . SVG Version: 6.00 Build 0)  -->
<svg version="1.1" id="Layer_1" xmlns="http://www.w3.org/2000/svg" xmlns:xlink="http://www.w3.org/1999/xlink" x="0px" y="0px"
	 viewBox="0 0 100 100" style="enable-background:new 0 0 100 100;" xml:space="preserve">
<style type="text/css">
	.st0{fill:#D8D8D8;}
</style>
<g>
	<path class="st0" d="M49.9,87.9c-11.6,0-23.3-0.1-34.9,0.1c-4.3,0.1-7.3-3-7.3-7.3c0.1-19.7,0-39.4,0-59c0-1.1,0-2.2,0-3.3
		c0.1-3.6,2.9-6.4,6.5-6.4c23.8,0,47.7,0,71.5,0c3.5,0,6.2,2.5,6.5,6c0,0.4,0.1,0.9,0.1,1.4c0,20.4,0,40.9,0,61.3
		c0,3.8-1.8,6.3-5,7.1c-0.6,0.2-1.3,0.2-1.9,0.2C73.5,87.9,61.7,87.9,49.9,87.9z M87.9,63.2c0-0.7,0.1-0.9,0.1-1.2
		c0-14.3,0-28.6,0-42.9c0-2-0.7-2.7-2.9-2.7c-23.4,0-46.8,0-70.2,0c-2.3,0-2.8,0.6-2.8,2.9c0,13.9,0,27.7,0,41.6
		c0,0.4,0.1,0.8,0.1,1.4c0.5-0.5,0.9-0.8,1.3-1.1c6.4-5.8,12.7-11.7,19.1-17.5c1.9-1.8,2.7-1.7,4.5,0.1c6.4,6.4,12.8,12.9,19.3,19.3
		c0.4,0.4,0.8,0.7,1.2,1.1c4.3-4.6,8.5-9.1,12.7-13.6c2.1-2.2,2.8-2.2,5,0C79.4,54.6,83.5,58.8,87.9,63.2z M34.8,47.6
		c-0.2,0.1-0.3,0.2-0.4,0.2c-7.3,6.6-14.6,13.2-21.8,19.9c-0.4,0.3-0.6,1-0.6,1.6c0,3.9,0,7.7,0,11.6c0,2,0.6,2.7,2.7,2.7
		c23.5,0,47,0,70.5,0c2,0,2.7-0.7,2.7-2.7c0-3.5,0-6.9,0-10.4c0-0.7-0.3-1.5-0.8-1.9c-3.4-3.5-6.8-6.8-10.2-10.3
		c-1.3-1.3-2.6-2.8-4.2-4.4c-0.3,0.5-0.4,0.8-0.6,1c-4,4.3-8.1,8.7-12.1,13C58.1,70,57.2,70,55.2,68C48.4,61.2,41.7,54.4,34.8,47.6z
		"/>
	<path class="st0" d="M45.7,31.4c0-5.8,4.8-10.7,10.7-10.7c6,0,10.8,4.7,10.9,10.9c0.1,5.7-5,10.8-10.9,10.8
		C50.5,42.4,45.7,37.5,45.7,31.4z M63,31.7c0-3.7-2.9-6.7-6.5-6.7C53,25,50,27.9,50,31.4c0,3.7,2.9,6.6,6.5,6.6
		C60.1,38,63,35.1,63,31.7z"/>
</g>
</svg>
