<?xml version="1.0" encoding="utf-8"?>
<!-- Generator: Adobe Illustrator 19.1.0, SVG Export Plug-In . SVG Version: 6.00 Build 0)  -->
<svg version="1.1" id="Layer_1" xmlns="http://www.w3.org/2000/svg" xmlns:xlink="http://www.w3.org/1999/xlink" x="0px" y="0px"
	 viewBox="-9 46 100 100" style="enable-background:new -9 46 100 100;" xml:space="preserve">
<style type="text/css">
	.st0{fill:#D8D8D8;}
	.st1{fill:none;stroke:#D8D8D8;stroke-width:2;stroke-miterlimit:10;}
</style>
<g>
	<g>
		<path class="st0" d="M41.1,96.2c-5.6,0-11.2,0-16.8,0c-2.1,0-3.5-1.4-3.5-3.5c0-9.5,0-19,0-28.5c0-0.5,0-1.1,0-1.6
			c0-1.7,1.4-3.1,3.1-3.1c11.5,0,23,0,34.5,0c1.7,0,3,1.2,3.1,2.9c0,0.2,0,0.4,0,0.7c0,9.8,0,19.7,0,29.6c0,1.8-0.9,3-2.4,3.4
			c-0.3,0.1-0.6,0.1-0.9,0.1C52.5,96.2,46.8,96.2,41.1,96.2z M50.9,78.2c1-1.1,1.4-1.1,2.4,0c2,1.9,4,4,6.1,6.1c0-0.3,0-0.4,0-0.6
			c0-6.9,0-13.8,0-20.7c0-1-0.3-1.3-1.4-1.3c-11.3,0-22.6,0-33.9,0c-1.1,0-1.4,0.3-1.4,1.4c0,6.7,0,13.4,0,20.1c0,0.2,0,0.4,0,0.7
			c0.2-0.2,0.4-0.4,0.6-0.5c3.1-2.8,6.1-5.6,9.2-8.4c0.9-0.9,1.3-0.8,2.2,0c3.1,3.1,6.2,6.2,9.3,9.3c0.2,0.2,0.4,0.3,0.6,0.5
			 M33.8,76.8c-0.1,0-0.1,0.1-0.2,0.1c-3.5,3.2-7,6.4-10.5,9.6c-0.2,0.1-0.3,0.5-0.3,0.8c0,1.9,0,3.7,0,5.6c0,1,0.3,1.3,1.3,1.3
			c11.3,0,22.7,0,34,0c1,0,1.3-0.3,1.3-1.3c0-1.7,0-3.3,0-5c0-0.3-0.1-0.7-0.4-0.9c-1.6-1.7-3.3-3.3-4.9-5c-0.6-0.6-1.3-1.4-2-2.1
			c-0.1,0.2-0.2,0.4-0.3,0.5c-1.9,2.1-3.9,4.2-5.8,6.3c-0.9,1-1.4,1-2.3,0C40.4,83.3,37.1,80,33.8,76.8z"/>
		<path class="st0" d="M39,68.9c0-2.8,2.3-5.2,5.2-5.2c2.9,0,5.2,2.3,5.3,5.3c0,2.7-2.4,5.2-5.3,5.2S39,71.9,39,68.9z M47.4,69.1
			c0-1.8-1.4-3.2-3.1-3.2c-1.7,0-3.1,1.4-3.1,3.1c0,1.8,1.4,3.2,3.1,3.2C46,72.1,47.4,70.7,47.4,69.1z"/>
	</g>
	<g>
		<path class="st0" d="M41.1,102.8c5,0,9.9,0,14.9,0c1.2,0,1.7,0.5,1.7,1.7c0,0.3,0,0.7,0,0.9c0,0.9-0.6,1.4-1.4,1.5
			c-0.1,0-0.2,0-0.3,0c-9.9,0-19.9,0-29.8,0c-0.6,0-1.1-0.1-1.4-0.6c-0.1-0.2-0.3-0.4-0.3-0.7c-0.1-0.6-0.1-1.2,0-1.7
			c0-0.7,0.6-1.2,1.4-1.2c1.9,0,3.8,0,5.8,0C34.9,102.8,38,102.8,41.1,102.8z"/>
		<path class="st0" d="M41.1,111.1c5,0,9.9,0,14.9,0c1.2,0,1.7,0.5,1.7,1.7c0,0.3,0,0.7,0,0.9c0,0.9-0.6,1.4-1.4,1.5
			c-0.1,0-0.2,0-0.3,0c-9.9,0-19.9,0-29.8,0c-0.6,0-1.1-0.1-1.4-0.6c-0.1-0.2-0.3-0.4-0.3-0.7c-0.1-0.6-0.1-1.2,0-1.7
			c0.1-0.7,0.7-1.2,1.4-1.2c1.9,0,3.8,0,5.8,0C34.9,111.1,38,111.1,41.1,111.1z"/>
		<path class="st0" d="M41.1,119.5c5,0,9.9,0,14.9,0c1.2,0,1.7,0.5,1.7,1.7c0,0.3,0,0.7,0,0.9c0,0.8-0.6,1.4-1.4,1.5
			c-0.1,0-0.2,0-0.3,0c-9.9,0-19.9,0-29.8,0c-0.5,0-1-0.1-1.3-0.5c-0.2-0.3-0.3-0.6-0.3-0.9c-0.1-0.4,0-0.8,0-1.2
			c0-0.9,0.6-1.5,1.5-1.5C31,119.5,36.1,119.5,41.1,119.5z"/>
		<path class="st0" d="M32.8,127.8c2.2,0,4.4,0,6.7,0c1.1,0,1.6,0.6,1.6,1.6c0,0.3,0,0.7,0,1.1c0,0.9-0.6,1.4-1.4,1.5
			c-0.3,0-0.6,0-0.8,0c-4.2,0-8.4,0-12.6,0c-1.3,0-1.8-0.5-1.8-1.8c0-0.3,0-0.6,0-0.9c0-0.9,0.6-1.5,1.5-1.5
			C28.2,127.8,30.5,127.8,32.8,127.8z"/>
	</g>
</g>
<path class="st1" d="M66.4,140.1H15.8c-3.3,0-6-2.7-6-6V57.5c0-3.3,2.7-6,6-6h50.6c3.3,0,6,2.7,6,6v76.6
	C72.5,137.4,69.8,140.1,66.4,140.1z"/>
</svg>
