<?xml version="1.0" encoding="utf-8"?>
<!-- Generator: Adobe Illustrator 19.1.0, SVG Export Plug-In . SVG Version: 6.00 Build 0)  -->
<svg version="1.1" id="Layer_1" xmlns="http://www.w3.org/2000/svg" xmlns:xlink="http://www.w3.org/1999/xlink" x="0px" y="0px"
	 viewBox="-9 46 100 100" style="enable-background:new -9 46 100 100;" xml:space="preserve">
<style type="text/css">
	.st0{fill:#D8D8D8;}
</style>
<g>
	<path class="st0" d="M41,95.3c-5.6,0-11.2,0-16.8,0c-2.1,0-3.5-1.4-3.5-3.5c0-9.5,0-19,0-28.5c0-0.5,0-1.1,0-1.6
		c0-1.7,1.4-3.1,3.1-3.1c11.5,0,23,0,34.5,0c1.7,0,3,1.2,3.1,2.9c0,0.2,0,0.4,0,0.7c0,9.8,0,19.7,0,29.6c0,1.8-0.9,3-2.4,3.4
		c-0.3,0.1-0.6,0.1-0.9,0.1C52.3,95.3,46.6,95.3,41,95.3z M50.8,77.3c1-1.1,1.4-1.1,2.4,0c2,1.9,4,4,6.1,6.1c0-0.3,0-0.4,0-0.6
		c0-6.9,0-13.8,0-20.7c0-1-0.3-1.3-1.4-1.3c-11.3,0-22.6,0-33.9,0c-1.1,0-1.4,0.3-1.4,1.4c0,6.7,0,13.4,0,20.1c0,0.2,0,0.4,0,0.7
		c0.2-0.2,0.4-0.4,0.6-0.5c3.1-2.8,6.1-5.6,9.2-8.4c0.9-0.9,1.3-0.8,2.2,0c3.1,3.1,6.2,6.2,9.3,9.3c0.2,0.2,0.4,0.3,0.6,0.5
		 M33.7,75.9c-0.1,0-0.1,0.1-0.2,0.1c-3.5,3.2-7,6.4-10.5,9.6c-0.2,0.1-0.3,0.5-0.3,0.8c0,1.9,0,3.7,0,5.6c0,1,0.3,1.3,1.3,1.3
		c11.3,0,22.7,0,34,0c1,0,1.3-0.3,1.3-1.3c0-1.7,0-3.3,0-5c0-0.3-0.1-0.7-0.4-0.9c-1.6-1.7-3.3-3.3-4.9-5c-0.6-0.6-1.3-1.4-2-2.1
		c-0.1,0.2-0.2,0.4-0.3,0.5c-1.9,2.1-3.9,4.2-5.8,6.3c-0.9,1-1.4,1-2.3,0C40.2,82.4,37,79.1,33.7,75.9z"/>
	<path class="st0" d="M38.9,68c0-2.8,2.3-5.2,5.2-5.2c2.9,0,5.2,2.3,5.3,5.3c0,2.7-2.4,5.2-5.3,5.2C41.2,73.3,38.9,71,38.9,68z
		 M47.3,68.2c0-1.8-1.4-3.2-3.1-3.2C42.4,65,41,66.4,41,68c0,1.8,1.4,3.2,3.1,3.2C45.9,71.2,47.3,69.8,47.3,68.2z"/>
</g>
<g>
	<path class="st0" d="M41,101.9c5.4,0,10.7,0,16.1,0c1.3,0,1.9,0.5,1.9,1.9c0,0.4,0,0.7,0,1c0,1-0.6,1.6-1.6,1.6c-0.1,0-0.2,0-0.3,0
		c-10.7,0-21.4,0-32.1,0c-0.6,0-1.1-0.1-1.5-0.6c-0.1-0.2-0.3-0.5-0.3-0.7c-0.1-0.6-0.1-1.3,0-1.9c0-0.7,0.7-1.3,1.5-1.3
		c2.1,0,4.1,0,6.2,0C34.3,101.9,37.6,101.9,41,101.9z"/>
	<path class="st0" d="M41,110.9c5.4,0,10.7,0,16.1,0c1.3,0,1.9,0.5,1.9,1.9c0,0.4,0,0.7,0,1c0,1-0.6,1.6-1.6,1.6c-0.1,0-0.2,0-0.3,0
		c-10.7,0-21.4,0-32.1,0c-0.6,0-1.1-0.1-1.5-0.6c-0.1-0.2-0.3-0.5-0.3-0.7c-0.1-0.6-0.1-1.3,0-1.9c0.1-0.8,0.7-1.3,1.6-1.3
		c2.1,0,4.1,0,6.2,0C34.3,110.9,37.6,110.9,41,110.9z"/>
	<path class="st0" d="M41,119.9c5.4,0,10.7,0,16.1,0c1.3,0,1.9,0.5,1.9,1.9c0,0.4,0,0.7,0,1c0,0.9-0.6,1.5-1.5,1.6
		c-0.1,0-0.2,0-0.4,0c-10.7,0-21.4,0-32.1,0c-0.5,0-1.1-0.1-1.4-0.5c-0.2-0.3-0.4-0.7-0.4-1c-0.1-0.4,0-0.9,0-1.3
		c0-1,0.6-1.6,1.6-1.6C30.1,119.9,35.6,119.9,41,119.9z"/>
	<path class="st0" d="M32.1,128.8c2.4,0,4.8,0,7.2,0c1.2,0,1.7,0.6,1.7,1.7c0,0.4,0,0.8,0,1.1c0,1-0.6,1.6-1.6,1.6
		c-0.3,0-0.6,0-0.9,0c-4.5,0-9,0-13.6,0c-1.4,0-1.9-0.5-1.9-1.9c0-0.4,0-0.7,0-1c0-1,0.6-1.6,1.6-1.6
		C27.1,128.8,29.5,128.8,32.1,128.8z"/>
</g>
</svg>
