<?xml version="1.0" encoding="utf-8"?>
<!-- Generator: Adobe Illustrator 19.1.0, SVG Export Plug-In . SVG Version: 6.00 Build 0)  -->
<svg version="1.1" id="Layer_1" xmlns="http://www.w3.org/2000/svg" xmlns:xlink="http://www.w3.org/1999/xlink" x="0px" y="0px"
	 viewBox="0 0 100 100" style="enable-background:new 0 0 100 100;" xml:space="preserve">
<style type="text/css">
	.st0{fill:#D8D8D8;}
</style>
<g>
	<path class="st0" d="M81.9,10c4.5,0,8.1,3.7,8.1,8.1v63.7c0,4.5-3.7,8.1-8.1,8.1H18.1c-4.5,0-8.1-3.7-8.1-8.1V18.1
		c0-4.5,3.7-8.1,8.1-8.1H81.9 M81.9,0H18.1C8.1,0,0,8.1,0,18.1v63.7c0,10,8.1,18.1,18.1,18.1h63.7c10,0,18.1-8.1,18.1-18.1V18.1
		C100,8.1,91.9,0,81.9,0L81.9,0z"/>
</g>
</svg>
