<?xml version="1.0" encoding="utf-8"?>
<!-- Generator: Adobe Illustrator 19.1.0, SVG Export Plug-In . SVG Version: 6.00 Build 0)  -->
<svg version="1.1" id="Layer_1" xmlns="http://www.w3.org/2000/svg" xmlns:xlink="http://www.w3.org/1999/xlink" x="0px" y="0px"
	 viewBox="0 0 100 100" style="enable-background:new 0 0 100 100;" xml:space="preserve">
<style type="text/css">
	.st0{fill:none;stroke:#D8D8D8;stroke-width:5;stroke-miterlimit:10;}
	.st1{fill:#D8D8D8;}
</style>
<path class="st0" d="M80.8,84.5H19.2c-4.6,0-8.4-3.8-8.4-8.4V22.4c0-4.6,3.8-8.4,8.4-8.4h61.7c4.6,0,8.4,3.8,8.4,8.4v53.7
	C89.2,80.7,85.5,84.5,80.8,84.5z"/>
<g>
	<path class="st1" d="M50.7,23c9,0,17.9,0,26.9,0c2.2,0,3.1,0.9,3.1,3.1c0,0.6,0,1.2,0,1.7c0,1.6-1,2.6-2.6,2.7c-0.2,0-0.3,0-0.5,0
		c-17.9,0-35.8,0-53.7,0c-1,0-1.9-0.1-2.5-1c-0.2-0.3-0.5-0.8-0.5-1.2c-0.1-1-0.1-2.1,0-3.1C20.9,24,22,23,23.4,23
		c3.5,0,6.9,0,10.4,0C39.5,23,45.1,23,50.7,23z"/>
	<path class="st1" d="M50.7,38c9,0,17.9,0,26.9,0c2.2,0,3.1,0.9,3.1,3.1c0,0.6,0,1.2,0,1.7c0,1.6-1,2.6-2.6,2.7c-0.2,0-0.3,0-0.5,0
		c-17.9,0-35.8,0-53.7,0c-1,0-1.9-0.1-2.5-1c-0.2-0.3-0.5-0.8-0.5-1.2c-0.1-1-0.1-2.1,0-3.1c0.1-1.3,1.2-2.2,2.6-2.2
		c3.5,0,6.9,0,10.4,0C39.5,38,45.1,38,50.7,38z"/>
	<path class="st1" d="M50.7,53c9,0,17.9,0,26.9,0c2.2,0,3.1,0.9,3.1,3.1c0,0.6,0,1.2,0,1.7c0,1.5-1,2.5-2.5,2.7c-0.2,0-0.4,0-0.6,0
		c-17.9,0-35.8,0-53.7,0c-0.9,0-1.8-0.1-2.4-0.9c-0.3-0.5-0.6-1.1-0.6-1.6c-0.1-0.7,0-1.5,0-2.2c0-1.7,1-2.7,2.7-2.7
		C32.6,53,41.7,53,50.7,53z"/>
	<path class="st1" d="M35.8,68c4,0,8,0,12.1,0c2,0,2.9,1,2.9,2.9c0,0.6,0,1.3,0,1.9c0,1.6-1,2.6-2.6,2.7c-0.5,0-1,0-1.5,0
		c-7.6,0-15.1,0-22.7,0c-2.3,0-3.2-0.9-3.2-3.2c0-0.6,0-1.1,0-1.7c0-1.6,1-2.7,2.7-2.7C27.5,68,31.6,68,35.8,68z"/>
</g>
</svg>
